<svg width="15" height="15" viewBox="0 0 15 15" fill="none" xmlns="http://www.w3.org/2000/svg">
<g clip-path="url(#clip0_6_183)">
<path d="M13.75 11.125H4.875C4.375 11.125 3.9375 10.6875 3.9375 10.1875V1.25C3.9375 0.875 3.6875 0.625 3.3125 0.625C2.9375 0.625 2.6875 0.875 2.6875 1.25V2.625H1.25C0.875 2.625 0.625 2.875 0.625 3.25C0.625 3.625 0.875 3.875 1.25 3.875H2.625V10.125C2.625 11.375 3.625 12.3125 4.8125 12.3125H11.0625V13.75C11.0625 14.125 11.3125 14.375 11.6875 14.375C12.0625 14.375 12.3125 14.125 12.3125 13.75V12.375H13.75C14.125 12.375 14.375 12.125 14.375 11.75C14.375 11.375 14.125 11.125 13.75 11.125Z" fill="white"/>
<path d="M5.375 3.875H10.125C10.625 3.875 11.0625 4.3125 11.0625 4.8125V9.5625C11.0625 9.9375 11.3125 10.1875 11.6875 10.1875C12.0625 10.1875 12.3125 9.9375 12.3125 9.5625V4.875C12.3125 3.625 11.3125 2.6875 10.125 2.6875H5.375C5 2.6875 4.75 2.9375 4.75 3.3125C4.75 3.6875 5.0625 3.875 5.375 3.875Z" fill="white"/>
</g>
<defs>
<clipPath id="clip0_6_183">
<rect width="15" height="15" fill="white"/>
</clipPath>
</defs>
</svg>
