<svg width="15" height="15" viewBox="0 0 15 15" fill="none" xmlns="http://www.w3.org/2000/svg">
<path fill-rule="evenodd" clip-rule="evenodd" d="M7.5 2.5C4.73858 2.5 2.5 4.73858 2.5 7.5C2.5 10.2614 4.73858 12.5 7.5 12.5C10.2614 12.5 12.5 10.2614 12.5 7.5C12.5 4.73858 10.2614 2.5 7.5 2.5ZM1.25 7.5C1.25 4.04822 4.04822 1.25 7.5 1.25C10.9518 1.25 13.75 4.04822 13.75 7.5C13.75 10.9518 10.9518 13.75 7.5 13.75C4.04822 13.75 1.25 10.9518 1.25 7.5ZM7.5 3.125C7.84518 3.125 8.125 3.40482 8.125 3.75V8.125C8.125 8.47018 7.84518 8.75 7.5 8.75C7.15482 8.75 6.875 8.47018 6.875 8.125V3.75C6.875 3.40482 7.15482 3.125 7.5 3.125ZM7.5 10C7.84518 10 8.125 10.2798 8.125 10.625V11.25C8.125 11.5952 7.84518 11.875 7.5 11.875C7.15482 11.875 6.875 11.5952 6.875 11.25V10.625C6.875 10.2798 7.15482 10 7.5 10Z" fill="white"/>
</svg>
