<svg width="15" height="15" viewBox="0 0 15 15" fill="none" xmlns="http://www.w3.org/2000/svg">
<path fill-rule="evenodd" clip-rule="evenodd" d="M8.53275 2.18659L7.14139 3.91298L5.79884 5.53785L3.85033 7.9622H6.4033C6.74848 7.9622 7.0283 8.24203 7.0283 8.5872V13.0157L9.82706 9.5064L11.1039 7.94623L11.7791 7.08307H9.15775C8.81258 7.08307 8.53275 6.80325 8.53275 6.45807V2.18659ZM9.04681 0.687249C9.47185 0.838345 9.78275 1.24618 9.78275 1.76146V5.83307H12.0403C12.5423 5.83307 12.8768 6.16754 13.0211 6.49676C13.1614 6.81688 13.1775 7.24043 12.9573 7.59908C12.945 7.61921 12.9315 7.63863 12.9169 7.65723L12.0842 8.7218L12.0756 8.73254L10.797 10.295L7.85279 13.9866C7.82497 14.0215 7.7935 14.0533 7.75891 14.0815C7.39886 14.3748 6.92751 14.4489 6.52448 14.3011C6.10124 14.146 5.7783 13.7497 5.7783 13.2212V9.2122H3.58479C3.0828 9.2122 2.74834 8.87774 2.60401 8.54852C2.46367 8.2284 2.44765 7.80484 2.66777 7.44619C2.68157 7.42372 2.69677 7.40214 2.71329 7.38158L4.83246 4.7449L6.17527 3.11972L7.82564 1.07198C8.1277 0.652091 8.63116 0.539487 9.04681 0.687249Z" fill="white"/>
</svg>
