<svg width="25" height="25" viewBox="0 0 25 25" fill="none" xmlns="http://www.w3.org/2000/svg">
<path fill-rule="evenodd" clip-rule="evenodd" d="M12.4553 4.16665C8.96157 4.16665 6.19589 6.87228 6.19589 10.0806V13.508C6.19589 13.7149 6.13427 13.9172 6.01889 14.0889L4.32588 16.6091L4.31467 16.6254C4.11986 16.9038 4.14119 17.158 4.24174 17.3408C4.34623 17.5309 4.57465 17.7083 4.9426 17.7083H20.0739C20.3391 17.7083 20.5961 17.5505 20.7396 17.295C20.8766 17.0509 20.856 16.8289 20.7273 16.6603C20.7205 16.6514 20.7139 16.6424 20.7074 16.6334L18.9086 14.1132C18.7825 13.9366 18.7148 13.725 18.7148 13.508V10.0806C18.7148 8.47061 18.0012 6.93166 16.9365 5.90947C15.7264 4.8512 14.1714 4.16665 12.4553 4.16665ZM4.11256 10.0806C4.11256 5.62768 7.9073 2.08331 12.4553 2.08331C14.7527 2.08331 16.7893 3.00568 18.3281 4.35888C18.3385 4.36802 18.3487 4.37737 18.3587 4.38691C19.8253 5.78416 20.7981 7.86745 20.7981 10.0806V13.1744L22.3945 15.411C23.1003 16.3484 23.0251 17.4797 22.5562 18.3149C22.0912 19.143 21.1842 19.7916 20.0739 19.7916H4.9426C2.69032 19.7916 1.24377 17.3937 2.60156 15.4399L4.11256 13.1906V10.0806ZM8.33326 21.875C8.33326 21.2997 8.79963 20.8333 9.37493 20.8333H15.6249C16.2002 20.8333 16.6666 21.2997 16.6666 21.875C16.6666 22.4503 16.2002 22.9166 15.6249 22.9166H9.37493C8.79963 22.9166 8.33326 22.4503 8.33326 21.875Z" fill="black"/>
</svg>
