<svg width="15" height="15" viewBox="0 0 15 15" fill="none" xmlns="http://www.w3.org/2000/svg">
<path fill-rule="evenodd" clip-rule="evenodd" d="M7.47328 2.5C5.37702 2.5 3.71761 4.12338 3.71761 6.04839V8.10484C3.71761 8.22898 3.68064 8.35031 3.61141 8.45336L2.5956 9.96546L2.58887 9.97527C2.47199 10.1423 2.48479 10.2948 2.54512 10.4045C2.60781 10.5185 2.74486 10.625 2.96563 10.625H12.0444C12.2035 10.625 12.3577 10.5303 12.4438 10.377C12.526 10.2305 12.5137 10.0973 12.4364 9.99618C12.4324 9.99086 12.4284 9.98548 12.4245 9.98004L11.3452 8.46794C11.2696 8.36197 11.2289 8.23503 11.2289 8.10484V6.04839C11.2289 5.08238 10.8008 4.15901 10.162 3.54569C9.4359 2.91073 8.50291 2.5 7.47328 2.5ZM2.46761 6.04839C2.46761 3.37662 4.74445 1.25 7.47328 1.25C8.85169 1.25 10.0736 1.80342 10.9969 2.61534C11.0032 2.62083 11.0093 2.62643 11.0153 2.63216C11.8953 3.47051 12.4789 4.72048 12.4789 6.04839V7.90466L13.4368 9.2466C13.8602 9.80904 13.8151 10.4878 13.5338 10.9889C13.2548 11.4858 12.7106 11.875 12.0444 11.875H2.96563C1.61426 11.875 0.746338 10.4362 1.56101 9.26393L2.46761 7.9144V6.04839ZM5.00003 13.125C5.00003 12.7798 5.27985 12.5 5.62503 12.5H9.37503C9.72021 12.5 10 12.7798 10 13.125C10 13.4702 9.72021 13.75 9.37503 13.75H5.62503C5.27985 13.75 5.00003 13.4702 5.00003 13.125Z" fill="white"/>
</svg>
