<svg width="15" height="15" viewBox="0 0 15 15" fill="none" xmlns="http://www.w3.org/2000/svg">
<path d="M13.125 2.5H1.875C1.5 2.5 1.25 2.25 1.25 1.875C1.25 1.5 1.5 1.25 1.875 1.25H13.125C13.5 1.25 13.75 1.5 13.75 1.875C13.75 2.25 13.5 2.5 13.125 2.5Z" fill="white"/>
<path d="M13.125 10H1.875C1.5 10 1.25 9.75 1.25 9.375C1.25 9 1.5 8.75 1.875 8.75H13.125C13.5 8.75 13.75 9 13.75 9.375C13.75 9.75 13.5 10 13.125 10Z" fill="white"/>
<path d="M9.1875 6.25H1.875C1.5 6.25 1.25 6 1.25 5.625C1.25 5.25 1.5 5 1.875 5H9.1875C9.5625 5 9.8125 5.25 9.8125 5.625C9.8125 6 9.5625 6.25 9.1875 6.25Z" fill="white"/>
<path d="M9.1875 13.75H1.875C1.5 13.75 1.25 13.5 1.25 13.125C1.25 12.75 1.5 12.5 1.875 12.5H9.1875C9.5625 12.5 9.8125 12.75 9.8125 13.125C9.8125 13.5 9.5625 13.75 9.1875 13.75Z" fill="white"/>
</svg>
