<svg width="14" height="17" viewBox="0 0 14 17" fill="none" xmlns="http://www.w3.org/2000/svg">
<path d="M10.5625 2.67V1.5C10.5625 1.1925 10.3075 0.9375 10 0.9375C9.6925 0.9375 9.4375 1.1925 9.4375 1.5V2.625H4.5625V1.5C4.5625 1.1925 4.3075 0.9375 4 0.9375C3.6925 0.9375 3.4375 1.1925 3.4375 1.5V2.67C1.4125 2.8575 0.43 4.065 0.28 5.8575C0.265 6.075 0.445 6.255 0.655 6.255H13.345C13.5625 6.255 13.7425 6.0675 13.72 5.8575C13.57 4.065 12.5875 2.8575 10.5625 2.67ZM13 7.38H1C0.5875 7.38 0.25 7.7175 0.25 8.13V12.75C0.25 15 1.375 16.5 4 16.5H10C12.625 16.5 13.75 15 13.75 12.75V8.13C13.75 7.7175 13.4125 7.38 13 7.38ZM4.9075 13.6575C4.87 13.6875 4.8325 13.725 4.795 13.7475C4.75 13.7775 4.705 13.8 4.66 13.815C4.615 13.8375 4.57 13.8525 4.525 13.86C4.4725 13.8675 4.4275 13.875 4.375 13.875C4.2775 13.875 4.18 13.8525 4.09 13.815C3.9925 13.7775 3.9175 13.725 3.8425 13.6575C3.7075 13.515 3.625 13.32 3.625 13.125C3.625 12.93 3.7075 12.735 3.8425 12.5925C3.9175 12.525 3.9925 12.4725 4.09 12.435C4.225 12.375 4.375 12.36 4.525 12.39C4.57 12.3975 4.615 12.4125 4.66 12.435C4.705 12.45 4.75 12.4725 4.795 12.5025L4.9075 12.5925C5.0425 12.735 5.125 12.93 5.125 13.125C5.125 13.32 5.0425 13.515 4.9075 13.6575ZM4.9075 11.0325C4.765 11.1675 4.57 11.25 4.375 11.25C4.18 11.25 3.985 11.1675 3.8425 11.0325C3.7075 10.89 3.625 10.695 3.625 10.5C3.625 10.305 3.7075 10.11 3.8425 9.9675C4.0525 9.7575 4.3825 9.69 4.66 9.81C4.7575 9.8475 4.84 9.9 4.9075 9.9675C5.0425 10.11 5.125 10.305 5.125 10.5C5.125 10.695 5.0425 10.89 4.9075 11.0325ZM7.5325 13.6575C7.39 13.7925 7.195 13.875 7 13.875C6.805 13.875 6.61 13.7925 6.4675 13.6575C6.3325 13.515 6.25 13.32 6.25 13.125C6.25 12.93 6.3325 12.735 6.4675 12.5925C6.745 12.315 7.255 12.315 7.5325 12.5925C7.6675 12.735 7.75 12.93 7.75 13.125C7.75 13.32 7.6675 13.515 7.5325 13.6575ZM7.5325 11.0325L7.42 11.1225C7.375 11.1525 7.33 11.175 7.285 11.19C7.24 11.2125 7.195 11.2275 7.15 11.235C7.0975 11.2425 7.0525 11.25 7 11.25C6.805 11.25 6.61 11.1675 6.4675 11.0325C6.3325 10.89 6.25 10.695 6.25 10.5C6.25 10.305 6.3325 10.11 6.4675 9.9675C6.535 9.9 6.6175 9.8475 6.715 9.81C6.9925 9.69 7.3225 9.7575 7.5325 9.9675C7.6675 10.11 7.75 10.305 7.75 10.5C7.75 10.695 7.6675 10.89 7.5325 11.0325ZM10.1575 13.6575C10.015 13.7925 9.82 13.875 9.625 13.875C9.43 13.875 9.235 13.7925 9.0925 13.6575C8.9575 13.515 8.875 13.32 8.875 13.125C8.875 12.93 8.9575 12.735 9.0925 12.5925C9.37 12.315 9.88 12.315 10.1575 12.5925C10.2925 12.735 10.375 12.93 10.375 13.125C10.375 13.32 10.2925 13.515 10.1575 13.6575ZM10.1575 11.0325L10.045 11.1225C10 11.1525 9.955 11.175 9.91 11.19C9.865 11.2125 9.82 11.2275 9.775 11.235C9.7225 11.2425 9.67 11.25 9.625 11.25C9.43 11.25 9.235 11.1675 9.0925 11.0325C8.9575 10.89 8.875 10.695 8.875 10.5C8.875 10.305 8.9575 10.11 9.0925 9.9675C9.1675 9.9 9.2425 9.8475 9.34 9.81C9.475 9.75 9.625 9.735 9.775 9.765C9.82 9.7725 9.865 9.7875 9.91 9.81C9.955 9.825 10 9.8475 10.045 9.8775L10.1575 9.9675C10.2925 10.11 10.375 10.305 10.375 10.5C10.375 10.695 10.2925 10.89 10.1575 11.0325Z" fill="#666666"/>
</svg>
