<svg width="25" height="25" viewBox="0 0 25 25" fill="none" xmlns="http://www.w3.org/2000/svg">
<path d="M22.9167 18.5417H8.12508C7.29175 18.5417 6.56258 17.8125 6.56258 16.9792V2.08335C6.56258 1.45835 6.14592 1.04169 5.52092 1.04169C4.89592 1.04169 4.47925 1.45835 4.47925 2.08335V4.37502H2.08341C1.45841 4.37502 1.04175 4.79169 1.04175 5.41669C1.04175 6.04169 1.45841 6.45835 2.08341 6.45835H4.37508V16.875C4.37508 18.9584 6.04175 20.5209 8.02092 20.5209H18.4376V22.9167C18.4376 23.5417 18.8542 23.9584 19.4792 23.9584C20.1042 23.9584 20.5209 23.5417 20.5209 22.9167V20.625H22.9167C23.5417 20.625 23.9584 20.2084 23.9584 19.5834C23.9584 18.9584 23.5417 18.5417 22.9167 18.5417Z" fill="black"/>
<path d="M8.95841 6.45835H16.8751C17.7084 6.45835 18.4376 7.18752 18.4376 8.02085V15.9375C18.4376 16.5625 18.8542 16.9792 19.4792 16.9792C20.1042 16.9792 20.5209 16.5625 20.5209 15.9375V8.12502C20.5209 6.04169 18.8542 4.47919 16.8751 4.47919H8.95841C8.33341 4.47919 7.91675 4.89585 7.91675 5.52085C7.91675 6.14585 8.43758 6.45835 8.95841 6.45835Z" fill="black"/>
</svg>
