<svg width="25" height="25" viewBox="0 0 25 25" fill="none" xmlns="http://www.w3.org/2000/svg">
<path fill-rule="evenodd" clip-rule="evenodd" d="M12.4999 4.16665C7.89755 4.16665 4.16659 7.89761 4.16659 12.5C4.16659 17.1024 7.89755 20.8333 12.4999 20.8333C17.1023 20.8333 20.8333 17.1024 20.8333 12.5C20.8333 7.89761 17.1023 4.16665 12.4999 4.16665ZM2.08325 12.5C2.08325 6.74701 6.74695 2.08331 12.4999 2.08331C18.2529 2.08331 22.9166 6.74701 22.9166 12.5C22.9166 18.2529 18.2529 22.9166 12.4999 22.9166C6.74695 22.9166 2.08325 18.2529 2.08325 12.5ZM12.4999 5.20831C13.0752 5.20831 13.5416 5.67468 13.5416 6.24998V13.5416C13.5416 14.1169 13.0752 14.5833 12.4999 14.5833C11.9246 14.5833 11.4583 14.1169 11.4583 13.5416V6.24998C11.4583 5.67468 11.9246 5.20831 12.4999 5.20831ZM12.4999 16.6666C13.0752 16.6666 13.5416 17.133 13.5416 17.7083V18.75C13.5416 19.3253 13.0752 19.7916 12.4999 19.7916C11.9246 19.7916 11.4583 19.3253 11.4583 18.75V17.7083C11.4583 17.133 11.9246 16.6666 12.4999 16.6666Z" fill="black"/>
</svg>
