<svg width="25" height="25" viewBox="0 0 25 25" fill="none" xmlns="http://www.w3.org/2000/svg">
<path d="M21.8749 4.16668H3.12492C2.49992 4.16668 2.08325 3.75001 2.08325 3.12501C2.08325 2.50001 2.49992 2.08334 3.12492 2.08334H21.8749C22.4999 2.08334 22.9166 2.50001 22.9166 3.12501C22.9166 3.75001 22.4999 4.16668 21.8749 4.16668Z" fill="black"/>
<path d="M21.8749 16.6667H3.12492C2.49992 16.6667 2.08325 16.25 2.08325 15.625C2.08325 15 2.49992 14.5834 3.12492 14.5834H21.8749C22.4999 14.5834 22.9166 15 22.9166 15.625C22.9166 16.25 22.4999 16.6667 21.8749 16.6667Z" fill="black"/>
<path d="M15.3124 10.4167H3.12492C2.49992 10.4167 2.08325 10 2.08325 9.37501C2.08325 8.75001 2.49992 8.33334 3.12492 8.33334H15.3124C15.9374 8.33334 16.3541 8.75001 16.3541 9.37501C16.3541 10 15.9374 10.4167 15.3124 10.4167Z" fill="black"/>
<path d="M15.3124 22.9167H3.12492C2.49992 22.9167 2.08325 22.5 2.08325 21.875C2.08325 21.25 2.49992 20.8334 3.12492 20.8334H15.3124C15.9374 20.8334 16.3541 21.25 16.3541 21.875C16.3541 22.5 15.9374 22.9167 15.3124 22.9167Z" fill="black"/>
</svg>
