<svg width="25" height="25" viewBox="0 0 25 25" fill="none" xmlns="http://www.w3.org/2000/svg">
<path fill-rule="evenodd" clip-rule="evenodd" d="M14.2211 3.6443L11.9022 6.52161L9.66461 9.22974L6.41709 13.2703H10.672C11.2473 13.2703 11.7137 13.7367 11.7137 14.312V21.6928L16.3783 15.844L18.5063 13.2437L19.6317 11.8051H15.2628C14.6875 11.8051 14.2211 11.3387 14.2211 10.7634V3.6443ZM15.0779 1.1454C15.7863 1.39722 16.3045 2.07694 16.3045 2.93575V9.72177H20.0671C20.9037 9.72177 21.4612 10.2792 21.7017 10.8279C21.9356 11.3615 21.9623 12.0674 21.5954 12.6651C21.5749 12.6987 21.5524 12.731 21.5281 12.762L20.1402 14.5363L20.1259 14.5542L17.9948 17.1584L13.0879 23.311C13.0415 23.3692 12.989 23.4222 12.9314 23.4691C12.3313 23.958 11.5457 24.0815 10.874 23.8352C10.1686 23.5766 9.63038 22.9161 9.63038 22.0353V15.3537H5.97452C5.13788 15.3537 4.58045 14.7962 4.3399 14.2475C4.106 13.714 4.07929 13.0081 4.44616 12.4103C4.46916 12.3728 4.49449 12.3369 4.52203 12.3026L8.05398 7.90815L10.292 5.19952L13.0426 1.78661C13.546 1.0868 14.3851 0.899128 15.0779 1.1454Z" fill="black"/>
</svg>
