<svg width="100" height="100" viewBox="0 0 100 100" fill="none" xmlns="http://www.w3.org/2000/svg">
<path d="M50 95.8334C75.3131 95.8334 95.8334 75.3131 95.8334 50C95.8334 24.687 75.3131 4.16669 50 4.16669C24.687 4.16669 4.16669 24.687 4.16669 50C4.16669 75.3131 24.687 95.8334 50 95.8334Z" fill="#A8C4FF"/>
<path d="M84.3218 23.5659C83.7675 25.5911 81.2093 26.2306 79.7811 27.7655C78.6935 29.3316 77.9323 31.1006 77.5427 32.9671C77.3687 33.7287 77.0174 34.4384 76.5173 35.0385C76.0172 35.6386 75.3824 36.1122 74.6647 36.4206C73.3711 36.4373 72.1369 36.9662 71.2326 37.8914C68.8451 38.6375 68.781 35.248 69.9322 33.8622C66.0097 34.9921 64.6453 36.6762 64.1124 37.9766C63.0465 40.4921 64.5814 42.901 62.8547 44.9049C62.1011 45.6874 61.1134 46.2036 60.0407 46.3757C56.779 47.0792 54.6047 44.5424 53.7733 45.1819C52.0679 46.5036 59.998 57.8234 58.3992 59.1664C57.5678 59.87 54.37 57.7595 52.5154 55.4571C51.0967 53.6851 50.2295 51.5354 50.0213 49.2749C48.8276 44.1374 45.5446 40.9397 43.3276 41.2382C40.9401 41.5579 38.2752 46.1199 39.3411 52.2595C35.6959 50.9378 32.0291 47.2924 31.8586 43.2634C30.7502 39.4049 26.7637 37.2518 24.1202 34.4378C25.8896 39.5328 25.5272 46.3757 30.0893 49.8719C28.4276 50.6243 26.7008 51.2237 24.9303 51.6626C16.6803 53.7091 15.2734 48.4223 15.5292 37.9552C6.87412 61.4261 25.9323 52.2808 19.8566 66.2013C16.7175 69.4785 14.6954 73.6646 14.0795 78.1607C14.0582 78.2459 14.0582 78.3099 14.0369 78.3951C13.9944 78.3507 13.9586 78.3005 13.9303 78.2459C7.62227 70.18 4.18624 60.2397 4.16664 50C4.15314 42.6997 5.90091 35.5039 9.26164 29.0232C10.8605 30.345 11.7771 30.3876 12.3101 30.1745C13.7171 29.6629 13.3333 27.2753 15.4012 25.1435C16.1266 24.3739 17.0256 23.7891 18.0232 23.438C21.6899 22.2016 24.5039 25.5911 26.2519 24.3334C26.8937 23.6203 27.2505 22.696 27.2545 21.7367C27.2584 20.7774 26.9091 19.8501 26.2732 19.1319C25.557 18.4388 24.6049 18.0427 23.6085 18.0233C22.7132 20.2616 20.6241 21.0717 19.6221 20.5814C19.2046 20.317 18.9007 19.9066 18.7694 19.4302C18.6833 19.1535 18.6332 18.867 18.6202 18.5776V18.5563C18.5521 17.7206 18.73 16.8832 19.1318 16.1473C19.3024 15.9981 19.4516 15.8489 19.6221 15.6996C19.7713 15.5505 19.9419 15.4225 20.1125 15.2734C20.1204 15.2566 20.1323 15.2419 20.1471 15.2308C20.162 15.2196 20.1793 15.2123 20.1977 15.2094C23.1317 12.8822 26.5708 11.2758 30.2384 10.5194C31.5134 10.2467 32.826 10.1962 34.1182 10.3702C36.4724 11.0849 38.7123 12.1331 40.7695 13.4827C42.5598 13.9947 44.1185 15.1091 45.1821 16.6375C55.9689 24.2055 72.1919 18.4283 84.3218 23.5659Z" fill="#3CB16F"/>
<path d="M74.664 42.617C72.6696 43.9825 70.4612 45.0055 68.13 45.6439C67.7371 45.7736 67.2493 46.0905 67.4099 46.4718C67.4543 46.5612 67.5173 46.6401 67.5948 46.7032C68.1176 47.1765 68.7388 47.528 69.4138 47.7325C70.0887 47.937 70.8006 47.9893 71.4982 47.8858C71.8325 47.8493 72.1525 47.7305 72.4296 47.54C72.7135 47.2682 72.9635 46.963 73.174 46.6311C74.4627 45.026 77.1969 45.1848 78.4005 43.5148C78.6662 43.1076 78.8744 42.6656 79.0191 42.2013C79.385 41.1933 81.0115 38.1542 78.722 38.9735C77.0188 39.5831 76.0529 41.554 74.664 42.617Z" fill="#3CB16F"/>
<path d="M54.9333 62.8657C56.5025 64.3522 58.4609 65.3636 60.5815 65.7826C61.0346 65.754 61.4818 65.8967 61.8347 66.1823C62.2595 66.6726 61.9148 67.451 61.4414 67.8946C60.7714 68.441 59.9681 68.7994 59.1139 68.9331C58.2597 69.0668 57.3854 68.971 56.5804 68.6555C54.9786 68.0028 53.5361 67.0128 52.3509 65.7529C51.0636 64.7342 50.1583 63.3104 49.782 61.7126C49.6097 60.3894 49.1307 58.6283 50.7878 59.609C52.2373 60.6056 53.6219 61.6933 54.9333 62.8657Z" fill="#3CB16F"/>
<path d="M74.6747 57.1533C74.797 57.1878 74.9271 57.182 75.0459 57.137C75.7229 56.0912 76.0717 54.8668 76.0476 53.6213C75.7518 53.0572 74.7455 52.9275 74.1843 53.0011C73.3371 53.1121 73.2902 53.1733 73.2627 53.8288C73.2539 54.0367 73.6213 54.5294 73.6623 54.8042C73.7156 55.1616 73.5034 55.525 73.548 55.8589C73.6585 56.685 73.7361 56.9918 74.6747 57.1533Z" fill="#3CB16F"/>
<path d="M65.1838 62.8208C65.0822 62.8755 64.9695 62.953 64.9659 63.0683C64.9617 63.2005 65.0992 63.2841 65.2065 63.3615C65.4222 63.5686 65.5861 63.8237 65.6848 64.106C65.7835 64.3882 65.8142 64.6898 65.7746 64.9862C65.691 65.5803 65.7713 66.1859 66.007 66.7376C66.1819 66.9924 66.4174 67.1997 66.6922 67.3409C66.9671 67.4821 67.2727 67.5528 67.5817 67.5467C68.1989 67.5279 68.8085 67.4054 69.385 67.1844L72.3189 66.243C72.4506 66.2007 72.6061 66.1305 72.6187 65.9928C72.6335 65.8314 72.4473 65.7397 72.312 65.6504C72.1317 65.5007 71.9958 65.3043 71.9193 65.0827C71.8428 64.8611 71.8286 64.6228 71.8782 64.3937C72.0649 63.0172 72.6506 60.3691 70.3425 60.4806C69.4643 60.523 68.6155 61.3208 67.8533 61.6894C66.9822 62.1109 66.038 62.3601 65.1838 62.8208Z" fill="#3CB16F"/>
<path d="M69.5561 71.2887C69.802 71.3459 70.0253 71.4749 70.1978 71.6592C70.3703 71.8436 70.4841 72.075 70.5249 72.3241C70.3784 72.3595 70.2303 72.3931 70.0807 72.4249C69.4886 72.5503 66.7048 73.1296 66.768 72.1518C66.8344 71.1221 68.9765 71.1148 69.5561 71.2887Z" fill="#3CB16F"/>
<path d="M90.2128 64.55C89.6932 64.5619 89.394 65.1276 88.9784 65.4398C88.5634 65.6971 88.0889 65.8424 87.601 65.8617L82.6535 66.48C82.0048 66.6196 81.3272 66.4991 80.7664 66.1443C80.2056 65.7896 79.8064 65.2289 79.6546 64.583C79.4564 64.1389 79.4374 63.6354 79.6018 63.1777C79.7661 62.72 80.101 62.3435 80.5364 62.127C81.6743 61.7296 83.8053 62.8939 84.9194 63.2103C86.6704 63.7078 88.4349 64.1543 90.2128 64.55Z" fill="#3CB16F"/>
<path d="M86.5388 77.6705C80.8543 85.1754 72.993 90.7439 64.0271 93.6163C63.9939 91.884 64.3893 90.1704 65.1783 88.6279C65.7284 87.6638 66.3634 86.7506 67.0756 85.8993C68.432 84.316 69.2001 82.3129 69.25 80.2286C69.1885 79.9028 69.2031 79.5672 69.2925 79.248C69.5058 78.6298 70.2093 78.3953 70.8275 78.2248C73.8332 77.4573 77.1587 76.8817 79.1415 74.4941C79.477 74.0135 79.8789 73.5829 80.3352 73.2151C80.5583 73.0318 80.8391 72.9333 81.1279 72.9372C81.4166 72.9412 81.6947 73.0471 81.9127 73.2364C82.1121 73.4444 82.252 73.702 82.3178 73.9825C82.4244 74.622 83.2984 75.7306 86.5388 77.6705Z" fill="#3CB16F"/>
<path d="M79.3974 14.8469C75.1942 15.6895 70.9144 16.0896 66.6279 16.0407C65.5194 16.062 64.1764 15.8488 63.7287 14.6763C63.5155 14.1221 63.5794 13.4612 63.3663 12.9282C63.1127 12.5235 62.7558 12.1937 62.3324 11.9727C61.909 11.7516 61.4344 11.6473 60.9574 11.6706C57.1593 11.1507 53.4929 9.92132 50.1492 8.0465C48.1379 7.00863 46.2005 5.83335 44.3508 4.52902C46.2244 4.28956 48.1112 4.16854 50 4.16669C51.5775 4.16669 53.1551 4.25192 54.6899 4.40115C55.2655 4.46517 55.841 4.52906 56.4167 4.63562C56.6725 4.65696 56.9283 4.69962 57.1627 4.74231C58.2256 4.88658 59.2791 5.09299 60.3179 5.36048C61.5524 5.61936 62.7698 5.95403 63.9631 6.36256C69.6096 8.1625 74.8518 11.0442 79.3974 14.8469Z" fill="#E1E8FF"/>
<path opacity="0.5" d="M76.0006 12.2745C82.0882 21.095 84.8906 31.7706 83.9204 42.4438C82.9501 53.1171 78.2686 63.1123 70.6904 70.6906C63.1121 78.2688 53.1168 82.9502 42.4436 83.9204C31.7703 84.8906 21.0947 82.0881 12.2743 76.0005C16.0862 81.536 21.0693 86.1653 26.8701 89.5599C32.671 92.9545 39.1476 95.0314 45.8408 95.6434C52.534 96.2553 59.2799 95.3873 65.6002 93.1009C71.9204 90.8145 77.6603 87.1657 82.4129 82.4132C87.1655 77.6606 90.8143 71.9208 93.1008 65.6005C95.3872 59.2803 96.2552 52.5344 95.6433 45.8412C95.0314 39.148 92.9545 32.6713 89.5599 26.8705C86.1653 21.0696 81.5362 16.0865 76.0006 12.2745Z" fill="#686886"/>
<path opacity="0.44" d="M25.4845 43.6046C33.1373 43.6046 39.3411 37.4008 39.3411 29.7481C39.3411 22.0953 33.1373 15.8915 25.4845 15.8915C17.8317 15.8915 11.6279 22.0953 11.6279 29.7481C11.6279 37.4008 17.8317 43.6046 25.4845 43.6046Z" fill="#E0E8F4"/>
</svg>
